<svg xmlns="http://www.w3.org/2000/svg" viewBox="0 0 922.03 287.32"><path d="M36.25,142c.59-.55,1.31-1.29,2.13-2.13,6.44-6.55,19.83-20.17,34.26-12.49,11.83,6.31,10.64,21.67,10.07,29.05l-.09,1.2c-.31,4.4-.3,7.82-.29,11.45a142.32,142.32,0,0,1-.72,17c2.9-6.56,5.3-13.63,7.78-20.91l1.35-4a667.78,667.78,0,0,1,36.32-85.8c5.88-11.57,13.61-13.34,19.06-12.82,8.8.87,15,8.26,16.14,19.29,2.18,20.76-2.94,40.44-7.9,59.47-2.9,11.15-5.64,21.68-7,32.31-.07.53-.11,1-.13,1.53l0-.08a272.14,272.14,0,0,0,22.57-55.46c4.14-14.63,14-23,25.21-21.25,20.46,3.16,16.64,28.14,15.39,36.34-.17,1.12-.33,2.13-.43,3-.9,7.72-2.29,15.32-3.72,22.72A94.81,94.81,0,0,1,286,124.19,143.64,143.64,0,1,0,2.19,168.52C13.21,162.2,23.56,153.64,36.25,142Z" fill="#fff"/><path d="M253.51,151.93a73.65,73.65,0,0,0-38.86,37.72c-.17.37-.41,1-.73,1.81-5.59,14.1-10,22.29-17.36,25.19a13.52,13.52,0,0,1-10.85-.32c-10.05-4.76-8.26-17.27-7.4-23.28.07-.52.14-1,.17-1.28.52-5.88,1.39-12.06,2.83-20.05.69-3.85,1.44-7.69,2.19-11.53,1.38-7,2.7-13.77,3.66-20.5A294.51,294.51,0,0,1,167,185.84c-7.84,14.47-17.26,16.65-23.77,15.94a18.75,18.75,0,0,1-12.89-7.2c-6.58-8.34-5.69-20.23-5.25-23.68,1.51-12.08,4.57-23.82,7.52-35.17,3.2-12.27,6.27-24.08,7.31-35.68a646.74,646.74,0,0,0-28,68.47l-1.33,3.91c-5,14.71-10.17,29.93-20.29,43.06-4.75,6.17-10.19,9.29-16.17,9.29-.44,0-.88,0-1.33-.05A16.33,16.33,0,0,1,61,218.33c-5.58-7.24-4.44-17.39-3.69-21.42,2.61-14.11,2.6-20.44,2.58-27.77,0-3.86,0-7.86.34-13.07l.1-1.38c.08-1.06.23-3,.26-4.92-2.34,1.91-4.93,4.55-6.2,5.83s-2.14,2.18-3,2.93c-14,12.89-27,24-43.45,32.36a143.64,143.64,0,0,0,279.26-44.15A73.45,73.45,0,0,0,253.51,151.93Z" fill="#fff"/><path d="M467,212l-5.24-91.09h-.38L432.73,212H407.92L379,120.89h-.58L373.62,212H342.8L352.88,78.25h39.54l27.91,88h.39l27.52-88H488L497.85,212Z" fill="#fff"/><path d="M578.5,212l-.19-10.85c-4.07,5.81-14.15,13-27.91,13-26.36,0-34.31-16.08-34.31-39.92V116.43h31v53.49c0,11.05,3.11,18.61,14.15,18.61s16.09-8.72,16.09-21.32V116.43h31V212Z" fill="#fff"/><path d="M661.56,214.11c-14.35,0-29.46-4.46-40.32-14.73L632.87,181c7.75,6.59,20.55,11.63,28.3,11.63s13.18-1.94,13.18-8.14-14-9.3-17.45-10.47c-15.89-4.07-29.84-9.69-29.84-29.46,0-18.6,16.28-30,36.24-30s31.2,7.37,36.63,11.82l-10.08,18.22c-5.42-4.26-16.28-9.3-24-9.3-7.36,0-11.44,1.94-11.44,7s7.37,7.36,14,9.3c16.47,4.84,33.72,9.88,33.72,31C702.06,205.39,681.33,214.11,661.56,214.11Z" fill="#fff"/><path d="M732.67,105.38C722.2,105.38,715,99,715,89.29c0-9.49,7.17-16.08,17.64-16.08S750.3,79.8,750.3,89.29C750.3,99,743.13,105.38,732.67,105.38ZM717.16,212V116.43h31V212Z" fill="#fff"/><path d="M813.18,214.11c-26.16,0-50.39-17.83-50.39-49.61,0-32,24.61-49.82,50.78-49.82,24.42,0,35.47,10.08,35.47,10.08l-6.79,23.46a39.22,39.22,0,0,0-24.61-8.53c-13.18,0-23.65,9.11-23.65,24.22s9.5,24.62,24,24.62a37.77,37.77,0,0,0,24.22-9.3l7.37,23.45C848.65,203.45,838.57,214.11,813.18,214.11Z" fill="#fff"/><path d="M900.9,140.07v34.31c0,8.33.59,14.15,10.08,14.15a28.86,28.86,0,0,0,9.31-1.75L921.84,211a84.11,84.11,0,0,1-22.1,3.1c-24.81,0-30-15.11-30-37v-37H856.13V116.62H869.7v-26h31.2v26H922v23.45Z" fill="#fff"/></svg>
