<svg xmlns="http://www.w3.org/2000/svg" viewBox="0 0 648.99 167.24"><path d="M21.1,82.65c.34-.31.76-.74,1.24-1.23,3.75-3.81,11.55-11.74,19.94-7.27,6.89,3.67,6.2,12.61,5.86,16.9l0,.71c-.18,2.55-.17,4.55-.17,6.66a82.53,82.53,0,0,1-.42,9.92c1.69-3.82,3.09-7.94,4.53-12.17l.79-2.32A388.3,388.3,0,0,1,74,43.91c3.42-6.73,7.92-7.77,11.09-7.46,5.12.51,8.72,4.81,9.4,11.23,1.27,12.08-1.71,23.54-4.6,34.62a149.73,149.73,0,0,0-4.06,18.8c0,.31-.06.61-.07.89l0,0A158.25,158.25,0,0,0,98.88,69.67c2.41-8.52,8.17-13.37,14.67-12.37,11.91,1.84,9.69,16.37,9,21.15-.1.65-.19,1.24-.25,1.72-.52,4.5-1.33,8.92-2.16,13.22a55.16,55.16,0,0,1,46.36-21.1A83.61,83.61,0,1,0,1.27,98.09C7.69,94.41,13.72,89.43,21.1,82.65Z" fill="#fff"/><path d="M147.57,88.44a42.85,42.85,0,0,0-22.63,22c-.09.22-.24.59-.42,1.06-3.26,8.2-5.83,13-10.11,14.66a7.83,7.83,0,0,1-6.31-.19c-5.85-2.77-4.81-10-4.31-13.55,0-.3.08-.56.1-.74.3-3.42.81-7,1.65-11.67.4-2.24.84-4.48,1.28-6.71.8-4.1,1.56-8,2.12-11.94a171.25,171.25,0,0,1-11.71,26.86c-4.57,8.43-10,9.7-13.84,9.28a10.92,10.92,0,0,1-7.51-4.19c-3.83-4.85-3.3-11.77-3-13.78A160.43,160.43,0,0,1,77.21,79c1.86-7.15,3.65-14,4.25-20.77A375.81,375.81,0,0,0,65.18,98.09l-.78,2.28c-2.91,8.56-5.92,17.42-11.81,25.06-2.76,3.59-5.93,5.41-9.41,5.41q-.39,0-.78,0a9.48,9.48,0,0,1-6.89-3.72c-3.25-4.22-2.59-10.13-2.15-12.47a73.42,73.42,0,0,0,1.5-16.17c0-2.25,0-4.57.2-7.6l.06-.81c0-.61.13-1.76.15-2.86-1.36,1.11-2.87,2.64-3.61,3.39s-1.25,1.27-1.73,1.71c-8.16,7.5-15.74,14-25.28,18.83A83.61,83.61,0,0,0,167.2,85.41,42.79,42.79,0,0,0,147.57,88.44Z" fill="#fff"/><path d="M263.59,123.55l-16.42-29.9h-5.78v29.9H223V45.39h28.09c14.95,0,29.22,6.35,29.22,23.45,0,14.84-9.51,20.62-15.29,22.43l19.82,32.28Zm-15.06-64h-7.25v20h7.25c6.79,0,13.36-2,13.36-10.08S255.32,59.55,248.53,59.55Z" fill="#fff"/><path d="M345.72,100H306c.79,8,6.9,11.67,14.27,11.67A31.42,31.42,0,0,0,337,106.33l7.14,9.4c-1.82,1.36-9.18,9.07-26.51,9.07s-29.79-10.65-29.79-29.11,13.59-29,30.13-29,28,11,28,27.3C346,96.7,345.72,100,345.72,100ZM317.63,78.47c-7.47,0-11.32,5.89-11.55,11.21h23A11.25,11.25,0,0,0,317.63,78.47Z" fill="#fff"/><path d="M388.78,123.55l-.34-5.89c-2.38,2.38-6.91,7.14-16,7.14-9.86,0-20.28-5.33-20.28-17.79s11.44-16.65,21.75-17.1L388,89.34V88.1c0-5.89-4.2-8.95-11.45-8.95a35.7,35.7,0,0,0-17.1,5l-4.76-11.78a55,55,0,0,1,23.9-5.66c17.45,0,27.53,7.25,27.53,25.37v31.49Zm-9.63-24c-5.55.22-8.84,2.6-8.84,6.79s3.52,6.91,8.5,6.91a11.12,11.12,0,0,0,9.29-5.1V99Z" fill="#fff"/><path d="M455,123.55l-.11-6.34c-2.38,3.39-8.27,7.59-16.32,7.59-15.4,0-20-9.41-20-23.34V67.71H436.6V99c0,6.46,1.81,10.87,8.27,10.87s9.4-5.09,9.4-12.46V67.71h18.12v55.84Z" fill="#fff"/><path d="M527.79,123.55l.12-7.36-.35.11c-4.19,5.66-10.87,8.5-18.34,8.5-16.2,0-26.39-12.69-26.39-29.11s10.19-29,26.39-29c10.19,0,15.85,5.1,17.67,7.81V45.39H545v78.16ZM514.43,81c-7.82,0-13.14,5.89-13.14,14.5s5.32,14.5,13.14,14.5,13-5.89,13-14.5S522.24,81,514.43,81Z" fill="#fff"/><path d="M568,61.25c-6.12,0-10.31-3.74-10.31-9.4s4.19-9.4,10.31-9.4,10.3,3.85,10.3,9.4S574.13,61.25,568,61.25ZM559,123.55V67.71h18.13v55.84Z" fill="#fff"/><path d="M618.07,124.8c-17.67,0-31-11-31-29s13.37-29.11,31-29.11S649,77.79,649,95.8,635.74,124.8,618.07,124.8Zm0-43.84c-8,0-12.69,6.23-12.69,14.5S610,110,618.07,110s12.68-6.23,12.68-14.5S626,81,618.07,81Z" fill="#fff"/></svg>