<svg xmlns="http://www.w3.org/2000/svg" viewBox="0 0 673.89 167.24"><path d="M21.1,82.65c.34-.31.76-.74,1.24-1.23,3.75-3.81,11.55-11.74,19.94-7.27,6.89,3.67,6.2,12.61,5.86,16.9l0,.71c-.18,2.55-.17,4.55-.17,6.66a82.53,82.53,0,0,1-.42,9.92c1.69-3.82,3.09-7.94,4.53-12.17l.79-2.32A388.3,388.3,0,0,1,74,43.91c3.42-6.73,7.92-7.77,11.09-7.46,5.12.51,8.72,4.81,9.4,11.23,1.27,12.08-1.71,23.54-4.6,34.62a149.73,149.73,0,0,0-4.06,18.8c0,.31-.06.61-.07.89l0,0A158.25,158.25,0,0,0,98.88,69.67c2.41-8.52,8.17-13.37,14.67-12.37,11.91,1.84,9.69,16.37,9,21.15-.1.65-.19,1.24-.25,1.72-.52,4.5-1.33,8.92-2.16,13.22a55.16,55.16,0,0,1,46.36-21.1A83.61,83.61,0,1,0,1.27,98.09C7.69,94.41,13.72,89.43,21.1,82.65Z" fill="#fff"/><path d="M147.57,88.44a42.85,42.85,0,0,0-22.63,22c-.09.22-.24.59-.42,1.06-3.26,8.2-5.83,13-10.11,14.66a7.83,7.83,0,0,1-6.31-.19c-5.85-2.77-4.81-10-4.31-13.55,0-.3.08-.56.1-.74.3-3.42.81-7,1.65-11.67.4-2.24.84-4.48,1.28-6.71.8-4.1,1.56-8,2.12-11.94a171.25,171.25,0,0,1-11.71,26.86c-4.57,8.43-10,9.7-13.84,9.28a10.92,10.92,0,0,1-7.51-4.19c-3.83-4.85-3.3-11.77-3-13.78A160.43,160.43,0,0,1,77.21,79c1.86-7.15,3.65-14,4.25-20.77A375.81,375.81,0,0,0,65.18,98.09l-.78,2.28c-2.91,8.56-5.92,17.42-11.81,25.06-2.76,3.59-5.93,5.41-9.41,5.41q-.39,0-.78,0a9.48,9.48,0,0,1-6.89-3.72c-3.25-4.22-2.59-10.13-2.15-12.47a73.42,73.42,0,0,0,1.5-16.17c0-2.25,0-4.57.2-7.6l.06-.81c0-.61.13-1.76.15-2.86-1.36,1.11-2.87,2.64-3.61,3.39s-1.25,1.27-1.73,1.71c-8.16,7.5-15.74,14-25.28,18.83A83.61,83.61,0,0,0,167.2,85.41,42.79,42.79,0,0,0,147.57,88.44Z" fill="#fff"/><path d="M263.59,123.55l-16.42-29.9h-5.78v29.9H223V45.39h28.09c14.95,0,29.22,6.35,29.22,23.45,0,14.84-9.51,20.61-15.29,22.43l19.83,32.28Zm-15.06-64h-7.25v20h7.25c6.79,0,13.36-2,13.36-10.08S255.32,59.55,248.53,59.55Z" fill="#fff"/><path d="M344.59,100H304.83c.8,8,6.91,11.67,14.28,11.67a31.42,31.42,0,0,0,16.76-5.33l7.14,9.4c-1.82,1.36-9.18,9.07-26.51,9.07s-29.79-10.65-29.79-29.12,13.59-29,30.13-29,28,11,28,27.3C344.82,96.7,344.59,100,344.59,100ZM316.5,78.47c-7.47,0-11.33,5.89-11.55,11.21h23A11.25,11.25,0,0,0,316.5,78.47Z" fill="#fff"/><path d="M448.3,123.55V93.19c0-6-1.13-11.66-7.36-11.66s-9.06,5.66-9.06,13.36v28.66H413.75V93.19c0-6.91-1.58-11.66-7.47-11.66-6.34,0-9.06,5.66-9.06,13.36v28.66H379.09V67.71h18.13l-.11,8,.22-.11a18.22,18.22,0,0,1,15.41-9c7.7,0,13.81,2.6,16.64,10.19,4-6.79,9.52-10.19,17.79-10.19,14.27,0,19.37,9.74,19.37,23.22v33.64Z" fill="#fff"/><path d="M514.65,123.55l-.12-6.34c-2.38,3.39-8.27,7.59-16.31,7.59-15.4,0-20.05-9.41-20.05-23.34V67.71H496.3V99c0,6.46,1.81,10.87,8.26,10.87S514,104.75,514,97.38V67.71h18.12v55.84Z" fill="#fff"/><path d="M563.44,124.8c-8.38,0-17.21-2.61-23.56-8.61l6.8-10.76c4.53,3.85,12,6.79,16.54,6.79s7.7-1.13,7.7-4.75-8.16-5.44-10.19-6.12c-9.29-2.38-17.45-5.67-17.45-17.22,0-10.87,9.52-17.56,21.18-17.56s18.24,4.31,21.41,6.91L580,84.13c-3.17-2.49-9.51-5.43-14-5.43-4.31,0-6.69,1.13-6.69,4.07s4.31,4.31,8.16,5.44C577,91,587.12,94,587.12,106.33,587.12,119.7,575,124.8,563.44,124.8Z" fill="#fff"/><path d="M605.26,61.25c-6.11,0-10.31-3.74-10.31-9.4s4.2-9.4,10.31-9.4,10.31,3.85,10.31,9.4S611.38,61.25,605.26,61.25Zm-9.06,62.3V67.71h18.12v55.84Z" fill="#fff"/><path d="M652.6,124.8c-15.29,0-29.45-10.42-29.45-29s14.39-29.11,29.68-29.11c14.27,0,20.72,5.89,20.72,5.89l-4,13.7a23,23,0,0,0-14.39-5c-7.7,0-13.82,5.32-13.82,14.16s5.55,14.38,14,14.38a22.08,22.08,0,0,0,14.16-5.43l4.3,13.7C673.33,118.57,667.44,124.8,652.6,124.8Z" fill="#fff"/><circle cx="361.96" cy="81.98" r="8.03" fill="#fff"/><circle cx="361.96" cy="109.5" r="8.03" fill="#fff"/></svg>