<?xml version="1.0" standalone="no"?>
<!DOCTYPE svg PUBLIC "-//W3C//DTD SVG 20010904//EN"
 "http://www.w3.org/TR/2001/REC-SVG-20010904/DTD/svg10.dtd">
<svg version="1.0" xmlns="http://www.w3.org/2000/svg"
 width="700.000000pt" height="700.000000pt" viewBox="0 0 700.000000 700.000000"
 preserveAspectRatio="xMidYMid meet">
<metadata>
Created by potrace 1.11, written by Peter Selinger 2001-2013
</metadata>
<g transform="translate(0.000000,700.000000) scale(0.100000,-0.100000)"
fill="#000000" stroke="none">
<path d="M3269 6966 c-2 -2 -42 -7 -89 -11 -47 -5 -92 -9 -100 -10 -37 -4
-127 -18 -145 -21 -11 -3 -36 -7 -55 -10 -171 -27 -486 -117 -652 -185 -40
-16 -86 -35 -102 -42 -99 -40 -350 -172 -461 -240 -133 -83 -356 -246 -455
-334 -542 -477 -926 -1104 -1100 -1793 -16 -63 -31 -128 -34 -145 -8 -47 -15
-88 -20 -110 -5 -27 -24 -159 -31 -215 -27 -233 -25 -594 5 -800 5 -36 10 -71
10 -77 0 -23 19 -14 148 71 225 148 489 366 747 617 227 219 342 298 490 336
48 12 166 14 212 5 200 -43 329 -195 370 -437 13 -75 -8 -967 -24 -1013 -4
-13 -2 -13 10 3 9 11 17 24 17 28 0 5 6 23 14 40 20 44 77 201 119 327 167
501 402 1106 590 1520 14 30 35 78 47 105 132 296 345 718 395 780 92 115 198
175 321 180 172 6 307 -76 388 -239 19 -39 42 -100 50 -136 33 -144 38 -442
11 -665 -7 -52 -36 -244 -42 -270 -2 -11 -6 -30 -9 -42 -2 -13 -6 -33 -8 -45
-6 -29 -10 -45 -31 -133 -9 -38 -19 -81 -21 -95 -3 -14 -37 -146 -75 -294 -39
-148 -72 -276 -74 -285 -2 -9 -8 -36 -14 -61 -11 -50 -12 -55 -40 -195 -11
-55 -23 -120 -26 -145 -4 -25 -10 -64 -14 -87 -5 -24 -5 -40 -1 -38 12 7 192
375 245 500 26 61 53 124 61 142 49 108 190 519 240 699 34 125 116 279 188
355 160 170 381 213 579 113 209 -107 289 -379 231 -789 -3 -22 -7 -49 -9 -60
-1 -11 -8 -56 -14 -100 -6 -44 -13 -93 -15 -110 -2 -16 -6 -46 -10 -65 -5 -34
-16 -99 -20 -130 -2 -8 -6 -28 -9 -45 -4 -16 -9 -46 -12 -65 -3 -19 -8 -47
-11 -62 -8 -38 -1 -35 35 13 16 23 70 83 118 132 296 304 658 516 1072 628
100 27 187 44 346 65 17 3 102 6 190 9 88 2 164 4 168 4 5 1 6 13 3 29 -4 15
-8 38 -11 52 -95 525 -345 1073 -691 1516 -94 121 -139 171 -293 324 -434 431
-980 743 -1566 895 -171 44 -319 73 -465 90 -30 4 -66 9 -80 12 -29 6 -585 14
-591 9z"/>
<path d="M3287 4318 c-124 -275 -221 -503 -307 -723 -34 -88 -66 -169 -71
-180 -31 -72 -171 -465 -259 -725 -173 -511 -366 -871 -561 -1046 -171 -153
-423 -151 -577 5 -122 123 -164 324 -120 571 47 270 51 317 63 805 3 121 7
244 10 273 3 28 2 52 -3 52 -4 0 -55 -46 -113 -103 -93 -90 -184 -175 -284
-266 -127 -115 -341 -285 -520 -413 -60 -43 -207 -132 -292 -178 -35 -18 -63
-39 -63 -46 0 -26 110 -286 178 -420 132 -259 274 -473 465 -699 96 -114 363
-370 477 -458 63 -49 122 -94 131 -102 78 -63 335 -217 497 -298 229 -114 590
-243 797 -283 11 -2 31 -6 45 -9 143 -30 279 -50 425 -62 168 -14 584 -7 695
11 14 3 61 10 105 16 242 33 530 110 776 205 82 32 397 183 454 218 11 7 43
25 70 42 102 59 366 246 411 289 6 6 35 31 65 56 86 72 274 258 347 344 37 43
72 84 77 90 6 6 29 36 53 66 23 30 46 60 51 67 33 39 167 244 216 328 186 323
332 702 401 1040 9 45 43 253 48 295 3 25 8 63 10 85 3 22 8 90 11 151 6 108
5 112 -16 117 -26 7 -288 1 -349 -8 -255 -37 -508 -126 -698 -243 -102 -64
-246 -178 -331 -263 -177 -177 -303 -369 -407 -620 -145 -351 -241 -492 -383
-562 -59 -29 -74 -32 -151 -31 -102 1 -161 24 -226 89 -106 106 -130 253 -89
540 2 17 7 57 10 90 9 89 52 366 69 441 2 12 7 39 10 60 3 22 15 82 26 134 23
113 57 291 64 340 3 19 12 68 19 108 17 90 8 82 -28 -23 -51 -150 -142 -372
-245 -600 -54 -119 -194 -392 -238 -463 -137 -221 -297 -332 -482 -334 -217
-3 -385 117 -464 331 -63 172 -65 281 -10 616 27 164 79 392 173 755 62 242
100 406 117 505 2 17 9 55 14 85 14 77 23 170 18 170 -3 0 -53 -105 -111 -232z"/>
</g>
</svg>
