<?xml version="1.0" standalone="no"?>
<!DOCTYPE svg PUBLIC "-//W3C//DTD SVG 20010904//EN"
 "http://www.w3.org/TR/2001/REC-SVG-20010904/DTD/svg10.dtd">
<svg version="1.0" xmlns="http://www.w3.org/2000/svg"
 width="700.000000pt" height="700.000000pt" viewBox="0 0 700.000000 700.000000"
 preserveAspectRatio="xMidYMid meet">
<metadata>
Created by potrace 1.11, written by Peter Selinger 2001-2013
</metadata>
<g transform="translate(0.000000,700.000000) scale(0.100000,-0.100000)"
fill="#000000" stroke="none">
<path d="M3467 6984 c-1 -1 -74 -5 -161 -8 -88 -4 -162 -9 -165 -11 -4 -1 -37
-6 -76 -10 -38 -4 -72 -8 -75 -10 -3 -1 -25 -6 -50 -9 -47 -6 -64 -9 -145 -26
-27 -6 -59 -12 -70 -14 -49 -10 -258 -70 -340 -97 -695 -234 -1307 -688 -1728
-1282 -271 -382 -460 -801 -563 -1247 -23 -101 -27 -119 -39 -192 -11 -64 -13
-74 -20 -133 -4 -33 -9 -69 -11 -80 -23 -116 -23 -622 0 -765 2 -14 8 -52 12
-85 4 -33 8 -63 10 -67 1 -5 2 -17 3 -28 0 -11 5 -20 9 -20 28 0 417 278 517
368 11 10 54 47 95 82 91 78 151 133 294 270 143 138 132 128 204 182 214 160
420 190 612 87 97 -52 167 -143 208 -271 34 -108 40 -195 27 -433 -4 -82 -9
-249 -10 -370 -1 -121 -6 -247 -9 -280 l-7 -60 20 43 c27 58 88 222 181 492
108 313 230 647 264 725 8 17 42 100 76 185 212 525 537 1218 635 1355 139
195 350 254 548 154 60 -31 138 -116 174 -190 59 -121 77 -235 77 -489 -1
-172 -10 -287 -39 -475 -22 -141 -71 -357 -179 -780 -76 -298 -129 -534 -140
-630 -4 -27 -9 -66 -12 -85 l-6 -35 20 31 c32 49 185 368 245 509 92 216 246
642 262 726 2 9 17 58 35 110 100 300 284 474 511 485 88 4 195 -21 264 -62
120 -70 196 -204 221 -389 12 -92 6 -291 -12 -390 -2 -11 -6 -40 -9 -65 -3
-25 -7 -56 -10 -70 -2 -14 -7 -45 -10 -70 -2 -25 -6 -54 -9 -65 -2 -11 -7 -42
-10 -70 -4 -27 -18 -110 -32 -183 -13 -73 -24 -135 -24 -138 0 -3 29 28 64 69
290 332 632 559 1043 693 104 34 296 78 388 89 28 3 68 9 90 12 22 3 109 7
193 8 84 1 155 4 157 7 3 3 -6 67 -30 193 -90 478 -328 1007 -633 1410 -144
191 -345 405 -527 562 -339 292 -792 541 -1220 673 -55 17 -114 35 -132 41
-18 5 -40 12 -50 14 -234 51 -362 73 -508 89 -87 10 -391 25 -398 20z"/>
<path d="M3362 4463 c-17 -38 -60 -132 -96 -211 -36 -78 -66 -145 -66 -148 0
-3 -13 -33 -29 -67 -112 -241 -335 -822 -491 -1282 -34 -99 -65 -189 -69 -200
-5 -11 -32 -81 -61 -155 -140 -363 -320 -656 -480 -781 -166 -130 -390 -124
-538 15 -136 127 -177 327 -126 621 13 77 27 167 30 200 3 33 9 89 13 123 4
35 9 157 10 270 1 185 6 309 16 455 3 58 11 62 -140 -83 -199 -192 -337 -314
-527 -466 -199 -160 -302 -228 -581 -389 l-35 -20 54 -133 c106 -269 273 -569
440 -794 538 -724 1333 -1212 2224 -1367 207 -36 332 -46 590 -46 276 0 349 6
610 51 846 144 1626 617 2166 1314 365 470 614 1073 694 1675 18 139 20 169
24 278 l4 107 -155 -2 c-86 -1 -194 -7 -242 -14 -566 -87 -1048 -426 -1314
-924 -25 -47 -75 -157 -113 -245 -105 -250 -161 -345 -258 -439 -77 -76 -141
-101 -251 -101 -107 1 -165 24 -231 92 -81 83 -110 188 -101 366 3 62 8 123
11 137 5 32 14 98 22 175 6 68 69 440 99 590 25 126 58 293 60 310 1 11 8 49
14 85 15 90 13 114 -5 60 -31 -89 -85 -236 -99 -265 -7 -16 -23 -55 -35 -85
-12 -30 -31 -74 -41 -97 -11 -23 -19 -44 -19 -47 0 -28 -265 -551 -326 -643
-127 -191 -279 -292 -450 -299 -251 -10 -441 156 -503 440 -20 92 -22 277 -3
386 6 36 14 83 17 105 4 22 13 74 22 115 20 98 18 91 43 195 12 50 23 97 25
105 2 8 37 148 78 310 42 162 79 310 82 329 3 19 8 38 10 41 3 4 7 25 11 45 3
21 8 47 10 59 32 157 54 316 45 316 -4 0 -22 -30 -39 -67z"/>
</g>
</svg>
