<?xml version="1.0" standalone="no"?>
<!DOCTYPE svg PUBLIC "-//W3C//DTD SVG 20010904//EN"
 "http://www.w3.org/TR/2001/REC-SVG-20010904/DTD/svg10.dtd">
<svg version="1.0" xmlns="http://www.w3.org/2000/svg"
 width="700.000000pt" height="700.000000pt" viewBox="0 0 700.000000 700.000000"
 preserveAspectRatio="xMidYMid meet">
<metadata>
Created by potrace 1.11, written by Peter Selinger 2001-2013
</metadata>
<g transform="translate(0.000000,700.000000) scale(0.100000,-0.100000)"
fill="#000000" stroke="none">
<path d="M3262 6990 c-389 -31 -705 -102 -1047 -237 -323 -128 -630 -306 -910
-529 -141 -113 -416 -388 -529 -529 -419 -526 -673 -1135 -752 -1805 -24 -203
-25 -636 -1 -814 120 -889 531 -1658 1192 -2227 531 -457 1139 -726 1860 -825
185 -26 665 -26 850 0 197 27 373 63 540 111 1446 415 2473 1720 2532 3215 7
179 -10 475 -37 659 -90 614 -342 1192 -736 1686 -113 141 -388 416 -529 529
-471 375 -1029 626 -1610 726 -222 37 -611 56 -823 40z m-630 -1528 c45 -23
2472 -1774 2515 -1815 68 -64 82 -178 30 -255 -19 -29 -340 -266 -1280 -945
-690 -499 -1267 -911 -1282 -917 -14 -5 -49 -10 -76 -10 -78 0 -143 41 -180
112 -18 36 -19 88 -19 1868 0 1780 1 1832 19 1868 37 73 100 111 181 112 35 0
69 -7 92 -18z"/>
</g>
</svg>
